<?xml version="1.0" encoding="UTF-8"?>
<svg id="Livello_1" data-name="Livello 1" xmlns="http://www.w3.org/2000/svg" xmlns:xlink="http://www.w3.org/1999/xlink" viewBox="0 0 987 380">
  <defs>
    <style>
      .cls-1 {
        fill: url(#Sfumatura_senza_nome_14);
      }

      .cls-1, .cls-2, .cls-3, .cls-4 {
        stroke-width: 0px;
      }

      .cls-2 {
        fill: url(#Sfumatura_senza_nome_14-2);
      }

      .cls-3 {
        fill: #152740;
      }

      .cls-4 {
        fill: #fcfcfc;
      }
    </style>
    <linearGradient id="Sfumatura_senza_nome_14" data-name="Sfumatura senza nome 14" x1="331.47" y1="266.25" x2="271.6" y2="206.38" gradientUnits="userSpaceOnUse">
      <stop offset="0" stop-color="#152740"/>
      <stop offset="1" stop-color="#ff2e4c"/>
    </linearGradient>
    <linearGradient id="Sfumatura_senza_nome_14-2" data-name="Sfumatura senza nome 14" x1="331.84" y1="286.05" x2="255.5" y2="209.71" xlink:href="#Sfumatura_senza_nome_14"/>
  </defs>
  <rect class="cls-3" width="987" height="380"/>
  <g>
    <g>
      <path class="cls-1" d="M284.21,166.2c13.02,0,25.26,3.47,35.82,9.52.29-2.95.44-5.93.44-8.95,0-48.87-39.62-88.48-88.49-88.48s-88.48,39.61-88.48,88.48c0,42.51,29.98,78.02,69.96,86.54-.99-4.79-1.52-9.74-1.52-14.83,0-39.86,32.43-72.28,72.28-72.28Z"/>
      <path class="cls-2" d="M320.11,186.41c-10.57-7.31-22.98-11.18-35.9-11.18-34.87,0-63.24,28.37-63.24,63.24,0,6.2.89,12.31,2.65,18.14,7.93,26.55,32.84,45.1,60.59,45.1,34.87,0,63.24-28.37,63.24-63.24,0-20.8-10.23-40.26-27.35-52.06ZM284.21,291.55c-22.76,0-43.24-14.86-50.37-36.34,3.17-.06,6.29-.28,9.36-.67,30.55-3.87,56.25-23.32,68.88-50.14,1.33-2.82,2.5-5.72,3.53-8.69,13.6,9.98,21.69,25.84,21.69,42.77,0,29.27-23.81,53.08-53.08,53.08Z"/>
    </g>
    <g>
      <path class="cls-4" d="M393.82,184.93c4.71,4.71,11.96,8.63,20.88,8.63,5.78,0,9.31-2.45,9.31-5.59,0-3.73-4.22-5.2-11.18-6.67-10.78-2.16-25.88-4.9-25.88-20.39,0-10.98,9.31-20.49,26.08-20.49,10.49,0,19.61,3.14,26.57,9.12l-9.21,12.06c-5.49-4.51-12.65-6.76-18.43-6.76s-7.74,2.25-7.74,5.1c0,3.43,4.02,4.61,11.27,5.98,10.78,2.25,25.68,5.39,25.68,20.19,0,13.14-9.7,21.86-27.25,21.86-13.23,0-22.45-4.12-29.02-10.39l8.92-12.65Z"/>
      <path class="cls-4" d="M501.95,206.79v-65.39h16.86v65.39h-16.86Z"/>
      <path class="cls-4" d="M619.98,206.79l-10.98-22.16h-8.63v22.16h-16.86v-65.39h32.74c14.51,0,22.74,9.61,22.74,21.76,0,11.37-6.96,17.45-13.04,19.61l13.33,24.02h-19.31ZM613.71,155.62h-13.33v14.7h13.33c4.41,0,8.14-2.84,8.14-7.35s-3.73-7.35-8.14-7.35Z"/>
      <path class="cls-4" d="M701.25,206.79v-65.39h16.86v65.39h-16.86Z"/>
      <path class="cls-4" d="M808.6,140.33c20,0,34.9,13.92,34.9,33.82s-14.9,33.82-34.9,33.82-35-13.92-35-33.82,15-33.82,35-33.82ZM808.6,155.23c-10.88,0-17.84,8.23-17.84,18.92s6.96,18.92,17.84,18.92,17.74-8.33,17.74-18.92-6.96-18.92-17.74-18.92Z"/>
    </g>
    <g>
      <path class="cls-4" d="M387.68,237.82c.84.93,2.19,1.76,3.93,1.76,2.02,0,2.73-1.03,2.73-1.93,0-1.31-1.42-1.68-3.01-2.1-2-.52-4.32-1.1-4.32-3.65,0-2.06,1.81-3.55,4.41-3.55,1.93,0,3.44.62,4.54,1.74l-1.08,1.38c-.95-1.01-2.26-1.46-3.61-1.46s-2.34.71-2.34,1.76c0,1.12,1.35,1.48,2.9,1.87,2.04.54,4.41,1.18,4.41,3.84,0,1.94-1.35,3.76-4.71,3.76-2.22,0-3.85-.8-4.92-1.98l1.07-1.44Z"/>
      <path class="cls-4" d="M406.27,241.02v-12.48h1.87v12.48h-1.87Z"/>
      <path class="cls-4" d="M418.78,241.02v-12.48h4.45c3.89,0,6.47,2.66,6.47,6.25s-2.58,6.23-6.47,6.23h-4.45ZM420.65,239.37h2.58c2.88,0,4.54-2.06,4.54-4.58s-1.61-4.6-4.54-4.6h-2.58v9.18Z"/>
      <path class="cls-4" d="M439.82,241.02v-12.48h8.38v1.65h-6.51v3.65h6.38v1.65h-6.38v3.89h6.51v1.65h-8.38Z"/>
      <path class="cls-4" d="M467.29,241.02l-1.01-2.58h-6.11l-1.01,2.58h-2.06l4.96-12.48h2.34l4.96,12.48h-2.06ZM463.22,230.17l-2.51,6.6h5.03l-2.53-6.6Z"/>
      <path class="cls-4" d="M498.78,241.02l-2.97-4.81h-2.34v4.81h-1.87v-12.48h5.26c2.38,0,4,1.53,4,3.83s-1.52,3.44-3.1,3.65l3.2,4.99h-2.17ZM496.62,230.19h-3.14v4.38h3.14c1.35,0,2.32-.88,2.32-2.19s-.97-2.19-2.32-2.19Z"/>
      <path class="cls-4" d="M511.01,241.02v-12.48h8.38v1.65h-6.51v3.65h6.38v1.65h-6.38v3.89h6.51v1.65h-8.38Z"/>
      <path class="cls-4" d="M529.88,237.82c.84.93,2.19,1.76,3.93,1.76,2.02,0,2.73-1.03,2.73-1.93,0-1.31-1.42-1.68-3.01-2.1-2-.52-4.32-1.1-4.32-3.65,0-2.06,1.81-3.55,4.41-3.55,1.93,0,3.44.62,4.54,1.74l-1.08,1.38c-.95-1.01-2.26-1.46-3.61-1.46s-2.34.71-2.34,1.76c0,1.12,1.35,1.48,2.9,1.87,2.04.54,4.41,1.18,4.41,3.84,0,1.94-1.35,3.76-4.71,3.76-2.22,0-3.85-.8-4.92-1.98l1.07-1.44Z"/>
      <path class="cls-4" d="M548.47,241.02v-12.48h8.38v1.65h-6.51v3.65h6.38v1.65h-6.38v3.89h6.51v1.65h-8.38Z"/>
      <path class="cls-4" d="M575.95,241.02l-1.01-2.58h-6.11l-1.01,2.58h-2.06l4.96-12.48h2.34l4.96,12.48h-2.06ZM571.87,230.17l-2.51,6.6h5.03l-2.53-6.6Z"/>
      <path class="cls-4" d="M594.53,241.02l-2.97-4.81h-2.34v4.81h-1.87v-12.48h5.26c2.37,0,4,1.53,4,3.83s-1.51,3.44-3.1,3.65l3.2,4.99h-2.17ZM592.36,230.19h-3.14v4.38h3.14c1.35,0,2.32-.88,2.32-2.19s-.97-2.19-2.32-2.19Z"/>
      <path class="cls-4" d="M606.24,234.79c0-3.84,2.84-6.45,6.4-6.45,2.45,0,3.98,1.18,4.96,2.64l-1.59.84c-.66-1.05-1.89-1.81-3.37-1.81-2.53,0-4.47,1.98-4.47,4.79s1.95,4.79,4.47,4.79c1.48,0,2.71-.77,3.37-1.81l1.59.84c-.99,1.46-2.51,2.64-4.96,2.64-3.55,0-6.4-2.62-6.4-6.45Z"/>
      <path class="cls-4" d="M636.09,241.02v-5.57h-6.9v5.57h-1.87v-12.48h1.87v5.24h6.9v-5.24h1.87v12.48h-1.87Z"/>
      <path class="cls-4" d="M661.48,241.02v-12.48h1.87v12.48h-1.87Z"/>
      <path class="cls-4" d="M682.76,241.02l-6.9-9.58v9.58h-1.87v-12.48h1.93l6.79,9.35v-9.35h1.87v12.48h-1.81Z"/>
      <path class="cls-4" d="M703.97,241.02l-6.9-9.58v9.58h-1.87v-12.48h1.93l6.79,9.35v-9.35h1.87v12.48h-1.81Z"/>
      <path class="cls-4" d="M722.17,228.34c3.72,0,6.28,2.75,6.28,6.45s-2.56,6.45-6.28,6.45-6.29-2.75-6.29-6.45,2.56-6.45,6.29-6.45ZM722.17,230c-2.67,0-4.36,2.04-4.36,4.79s1.68,4.79,4.36,4.79,4.36-2.06,4.36-4.79-1.72-4.79-4.36-4.79Z"/>
      <path class="cls-4" d="M741.86,241.02l-4.96-12.48h2.13l3.98,10.44,4-10.44h2.13l-4.96,12.48h-2.34Z"/>
      <path class="cls-4" d="M766.43,241.02l-1.01-2.58h-6.12l-1.01,2.58h-2.06l4.96-12.48h2.34l4.96,12.48h-2.06ZM762.36,230.17l-2.51,6.6h5.03l-2.53-6.6Z"/>
      <path class="cls-4" d="M779.65,241.02v-10.83h-3.87v-1.65h9.59v1.65h-3.85v10.83h-1.87Z"/>
      <path class="cls-4" d="M795.17,241.02v-12.48h1.87v12.48h-1.87Z"/>
      <path class="cls-4" d="M813.45,228.34c3.72,0,6.28,2.75,6.28,6.45s-2.56,6.45-6.28,6.45-6.29-2.75-6.29-6.45,2.56-6.45,6.29-6.45ZM813.45,230c-2.67,0-4.36,2.04-4.36,4.79s1.68,4.79,4.36,4.79,4.36-2.06,4.36-4.79-1.72-4.79-4.36-4.79Z"/>
      <path class="cls-4" d="M838.62,241.02l-6.9-9.58v9.58h-1.87v-12.48h1.93l6.79,9.35v-9.35h1.87v12.48h-1.81Z"/>
    </g>
  </g>
</svg>